<svg id="Icon-Add" xmlns="http://www.w3.org/2000/svg" width="30" height="30" viewBox="0 0 30 30">
  <g id="Fond_Big_Circle" data-name="Fond/Big/Circle">
    <path id="Background-Blur" d="M30-15A15,15,0,0,1,15,0,15,15,0,0,1,0-15,15,15,0,0,1,15-30,15,15,0,0,1,30-15Z" transform="translate(0 30)" fill="rgba(0,0,0,0)"/>
    <path id="Color-or-Image" d="M30-15A15,15,0,0,1,15,0,15,15,0,0,1,0-15,15,15,0,0,1,15-30,15,15,0,0,1,30-15Z" transform="translate(0 30)" fill="#fff"/>
  </g>
  <g id="Icon_Home_Add" data-name="Icon/Home/Add" transform="translate(8 8.583)">
    <path id="Shape" d="M10.353,13.416a3.074,3.074,0,1,1,3.064-3.074A3.073,3.073,0,0,1,10.353,13.416ZM9.238,10.063a.279.279,0,0,0,0,.559h.836v.838a.279.279,0,1,0,.557,0v-.838h.836a.279.279,0,0,0,0-.559h-.836V9.224a.279.279,0,1,0-.557,0v.839ZM7.58,13.416H1.95a.279.279,0,0,1-.279-.279V6.709H.279a.28.28,0,0,1-.2-.478L6.014.28a.97.97,0,0,1,1.344,0L8.914,1.841V.28A.28.28,0,0,1,9.193,0h2.228A.28.28,0,0,1,11.7.28V4.636L13.248,6.19a.28.28,0,0,1-.15.518H11.675a.278.278,0,0,1-.253.164.271.271,0,0,1-.08-.012,3.585,3.585,0,0,0-2.956.407H4.736a.279.279,0,0,0-.278.279V10.9a.279.279,0,0,0,.278.28h2.05a3.622,3.622,0,0,0,.989,1.757.279.279,0,0,1-.2.479Z" fill="#2e3758"/>
  </g>
</svg>
