<svg xmlns="http://www.w3.org/2000/svg" width="10" height="12" viewBox="0 0 10 12">
  <g id="Icon_class_Seat" data-name="Icon/class/Seat" transform="translate(0)">
    <path id="Combined_Shape" data-name="Combined Shape" d="M3.368,12a1.6,1.6,0,0,1-1.535-1.323L.026,1.551A1.343,1.343,0,0,1,.269.478,1.181,1.181,0,0,1,1.2,0h.013a1.177,1.177,0,0,1,.858.377,2.278,2.278,0,0,1,.594,1.794l-.078.773a.383.383,0,0,0,0,.091l0,.02c0,.007,0,.014,0,.021L3.236,6l.508,2.333.307,1.408A.318.318,0,0,0,4.356,10H9.062a1,1,0,0,1,0,2ZM9.062,9.333H4.6l-.218-1L3.878,6,3.3,3.334S3.871.237,1.823,0H6.856a1.172,1.172,0,0,1,.853.377A2.274,2.274,0,0,1,8.3,2.172l-.078.773a.351.351,0,0,0,.005.111L9.622,9.442A1.5,1.5,0,0,0,9.062,9.333Z" fill="#c2c6d2"/>
  </g>
</svg>
